Coordinates
version=1
nRows=17
nColumns=36
inDegrees=yes

Units are S.I. units (second, meters, Newtons, ...)
If the header above contains a line with 'inDegrees', this indicates whether rotational values are in degrees (yes) or radians (no).

endheader
time	pelvis_tilt	pelvis_list	pelvis_rotation	pelvis_tx	pelvis_ty	pelvis_tz	hip_flexion_r	hip_adduction_r	hip_rotation_r	knee_angle_r	knee_angle_r_beta	ankle_angle_r	subtalar_angle_r	mtp_angle_r	hip_flexion_l	hip_adduction_l	hip_rotation_l	knee_angle_l	knee_angle_l_beta	ankle_angle_l	subtalar_angle_l	mtp_angle_l	lumbar_extension	lumbar_bending	lumbar_rotation	arm_flex_r	arm_add_r	arm_rot_r	elbow_flex_r	pro_sup_r	arm_flex_l	arm_add_l	arm_rot_l	elbow_flex_l	pro_sup_l
      4.25000000	    -24.86849022	     -6.33041315	     15.29342491	      0.12456689	      0.65230030	     -0.25264008	     97.97430282	    -16.97821131	      1.09784047	     96.07550815	      1.67683395	     34.00396854	      0.28038747	     -7.49999987	     94.94960439	    -18.06348102	      2.98954038	     93.87617072	      1.63844827	     25.57987492	     -8.16384100	     -7.49999987	    -30.95692280	     -4.49805713	      0.50196541	     32.90188835	    -29.62385674	     -5.73922403	     73.13603350	     82.76309964	     52.29806336	    -33.61446521	      8.78175307	     58.23250576	     79.83632436
      4.26666670	    -25.00404516	     -6.37407827	     15.15342294	      0.12986093	      0.66459350	     -0.25807944	     96.93377621	    -16.84446735	      0.52602298	     94.54478291	      1.65011775	     33.46191537	      0.43659501	     -7.49999987	     94.20646071	    -18.17170814	      2.69969597	     92.75987715	      1.61896527	     25.49720267	     -8.30840092	     -7.49999987	    -30.94826956	     -4.65016425	      0.54686046	     31.33183913	    -29.42113922	     -5.71521373	     72.74710366	     81.44352085	     50.10944672	    -33.14834605	      7.99373471	     57.95514285	     78.32650973
      4.28333330	    -25.05783070	     -6.59506940	     14.98362262	      0.12803157	      0.67186889	     -0.25750479	     95.45463084	    -16.55779105	     -0.19788402	     92.63706807	      1.61682185	     32.50721792	     -0.23272445	     -7.49999987	     93.16882632	    -18.19735475	      2.60509091	     91.32191613	      1.59386812	     25.16048871	     -8.72839606	     -7.49999987	    -30.43660835	     -4.64889275	      1.20096308	     28.41303691	    -29.68640964	     -6.65111326	     71.27029594	     82.24759008	     47.55985922	    -31.23185320	      6.33420030	     55.94557771	     78.35164166
      4.30000000	    -24.87111022	     -6.58310085	     14.85436457	      0.13238635	      0.68826417	     -0.26108736	     93.24660826	    -16.24967105	     -0.72807087	     90.30459832	      1.57611257	     32.20889599	     -0.02957283	     -7.49999987	     91.19486045	    -18.08269391	      2.23494850	     89.35310261	      1.55950584	     25.05146529	     -8.90331140	     -7.49999987	    -30.22415907	     -4.64810664	      2.19887416	     24.58882949	    -29.44406098	     -9.70170108	     70.85384102	     88.04337993	     45.06289376	    -28.83064093	      4.80159981	     53.12782885	     81.20309517
      4.31666670	    -24.84381687	     -6.56180718	     14.77614478	      0.13558085	      0.70273836	     -0.26378046	     90.82777715	    -15.92536018	     -1.12343302	     87.53456623	      1.52776639	     31.82891397	      0.10878110	     -7.49999987	     88.86589400	    -17.76866056	      1.74426971	     86.83375147	      1.51553486	     24.95721324	     -8.80747687	     -7.49999987	    -29.38674335	     -4.74505558	      2.11570590	     21.82609293	    -29.30675813	     -9.67562219	     69.97223345	     87.89658181	     41.69298380	    -28.85290914	      4.97277964	     52.10002157	     81.08868717
      4.33333330	    -23.19580903	     -6.12402098	     14.51070997	      0.13011114	      0.71266238	     -0.26567902	     86.69019465	    -15.16100975	     -1.45332597	     84.72308424	      1.47869677	     31.55559693	      0.12535573	     -7.49999987	     84.78520316	    -17.83313667	      1.16435404	     84.40022456	      1.47306181	     24.58896668	     -9.68376037	     -7.49999987	    -29.53348751	     -4.90048617	      2.71334470	     20.67282385	    -28.85174341	    -10.50793054	     66.74259431	     87.98043468	     38.88392992	    -27.15310457	      2.97563583	     48.44689960	     80.76653130
      4.35000000	    -22.57790501	     -5.68447947	     14.54267177	      0.12151176	      0.73750918	     -0.26233377	     83.57573435	    -14.91515682	     -1.61419184	     81.58233240	      1.42388031	     31.15989484	      0.57178094	     -7.49999987	     81.56691862	    -17.40462711	      0.21133516	     81.41813254	      1.42101448	     24.09427716	     -9.64481689	     -7.49999987	    -29.09536562	     -5.16299218	      2.91621857	     19.62590303	    -28.74625566	     -9.95480534	     63.38566581	     86.77936391	     36.60085231	    -25.85050896	      0.74438952	     44.81239930	     79.41314041
      4.36666670	    -21.08962649	     -5.18674354	     14.49292499	      0.13673766	      0.75955497	     -0.26615708	     79.06443416	    -14.41845575	     -1.99257147	     77.83144377	      1.35841496	     30.33865409	      0.33020361	     -7.49999987	     76.96898824	    -17.00436581	     -0.49235114	     77.82347404	      1.35827586	     23.23267964	     -9.86873315	     -7.49999987	    -29.24257370	     -5.33132392	      2.78964111	     18.31376836	    -27.40275879	     -9.56624678	     59.82127783	     85.46202470	     32.81379174	    -24.38955646	     -1.80852159	     40.84845379	     77.98281343
      4.38333330	    -19.27413435	     -4.27995820	     14.42739316	      0.13694369	      0.76909503	     -0.27215285	     74.46279905	    -14.08118120	     -1.86339642	     74.39236857	      1.29839177	     29.69829414	      0.40968450	     -7.49999987	     71.80838465	    -16.50891048	     -1.51720145	     74.26377669	      1.29614742	     22.55603950	     -9.97236762	     -7.49999987	    -29.09700959	     -5.87166208	      2.75547093	     17.30542147	    -26.73097115	     -8.52850084	     55.53468229	     85.03566550	     29.44273144	    -23.05876585	     -4.34057139	     36.92258025	     77.15022021
      4.40000000	    -17.51444419	     -3.39926855	     14.30437449	      0.14182419	      0.78834999	     -0.27630973	     69.71987612	    -13.82867299	     -1.79686823	     70.72791274	      1.23443495	     29.12369485	      0.50443152	     -7.49999987	     66.49048950	    -15.88566013	     -2.50534484	     70.40909083	      1.22887046	     21.86764183	     -9.87596296	     -7.49999987	    -28.45794565	     -6.21582308	      1.31203520	     17.60621673	    -25.50387576	     -5.26693563	     49.73875904	     87.45744973	     23.24812138	    -21.74773583	    -11.49236081	     34.81097778	     78.75566724
      4.41666670	    -15.40383532	     -2.23599354	     13.97115763	      0.13933943	      0.82309354	     -0.27552873	     64.08211315	    -13.56260489	     -1.70783535	     66.07974116	      1.15330905	     27.92558823	      0.42997588	     -7.49999987	     60.10686977	    -15.15316305	     -3.88588727	     65.38765546	      1.14122988	     20.35529154	    -10.18126622	     -7.49999987	    -28.86396264	     -7.14164816	      1.55440592	     16.57100789	    -24.11963172	     -6.16454221	     45.97322368	     86.82281103	     20.22120843	    -20.53355015	    -12.77156379	     30.98981431	     78.39740230
      4.43333330	    -12.89461948	     -0.78122793	     13.69564389	      0.14938429	      0.84008645	     -0.27555639	     57.86000015	    -13.66601610	     -1.69795887	     61.14833846	      1.06723984	     26.44836088	      0.37149479	     -7.49999987	     52.87080290	    -13.97980137	     -5.29773201	     59.66131619	      1.04128640	     18.61101074	    -10.44588047	     -7.49999987	    -29.53663172	     -8.32368871	      1.41875004	     15.76034042	    -22.69890502	     -6.73097374	     42.33958966	     86.91497216	     17.69292233	    -19.55869811	    -14.52695726	     26.58748445	     78.47740564
      4.45000000	    -10.67831427	      0.46247594	     13.26685375	      0.14463804	      0.85292429	     -0.27728837	     52.44725633	    -13.67519287	     -1.57917095	     56.69196133	      0.98946138	     25.04782200	      0.54239385	     -7.49999987	     46.58153652	    -12.96856835	     -6.64726540	     54.45659411	      0.95044687	     16.78497403	    -10.75515312	     -7.49999987	    -29.46092867	     -9.18548167	      1.81597044	     14.41733079	    -21.98142799	     -7.17968471	     38.70789309	     87.17158107	     14.79586341	    -18.63577276	    -16.34721677	     23.26593852	     78.64650443
      4.46666670	     -8.29274552	      1.59382910	     12.77324053	      0.15500864	      0.87749876	     -0.27645921	     46.30921059	    -13.63098870	     -1.92164333	     51.42479217	      0.89753194	     23.46511913	      0.90192850	     -7.49999987	     39.74849554	    -11.84958763	     -7.87219385	     48.29798819	      0.84295892	     14.27358658	    -11.29402130	     -7.49999987	    -29.07729749	     -9.85106147	      2.17670358	     13.38045419	    -21.22313306	     -7.61959837	     34.63712974	     87.84909888	     12.12155340	    -17.98397410	    -18.01758019	     19.45294630	     79.49051597
      4.48333330	     -5.10629142	      2.53227900	     12.34637759	      0.15457996	      0.89442787	     -0.27600792	     39.51022855	    -13.33545008	     -2.38957481	     46.33976729	      0.80878151	     21.59290338	      0.98106964	     -7.49999987	     32.55166078	    -11.05975200	     -8.99948784	     42.38980031	      0.73984158	     11.76521934	    -11.69663500	     -7.49999987	    -29.56036749	     -9.90611994	      2.81245253	     11.97570297	    -20.99101354	     -8.42415536	     32.44080742	     88.60978018	      9.70821067	    -17.22291120	    -20.18443364	     17.47651842	     80.56395772
      4.50000000	     -2.12764311	      3.27557756	     11.90074465	      0.16096856	      0.91772548	     -0.28104162	     32.60580366	    -13.06214425	     -3.19955182	     40.77101379	      0.71158843	     19.35202870	      1.13843738	     -7.49999987	     25.46398457	    -10.25703969	    -10.23558061	     36.03589328	      0.62894499	      8.81319666	    -12.02413006	     -7.49999987	    -29.60218682	     -9.76203296	      3.59621933	     10.74978925	    -20.73637900	    -10.48633307	     30.02825647	     93.19503206	      7.83313665	    -16.09471994	    -26.65782421	     15.59373998	     90.28826027
      4.51666670	      0.49958457	      3.61516034	     11.69628039	      0.16109737	      0.93795303	     -0.27941966	     26.29433451	    -12.52131256	     -4.11656564	     35.42254495	      0.61824004	     16.95831300	      1.45872174	     -7.49999987	     19.13832208	     -9.71772336	    -11.38154695	     29.86836510	      0.52130131	      5.75506860	    -11.78245906	     -7.49999987	    -29.16899617	     -9.10212484	      4.42780327	      9.52115006	    -20.87750761	    -11.32198567	     27.43611442	     93.35161583	      6.19350303	    -15.54584188	    -27.38634117	     13.60192010	     91.01066994
